<svg width="40" height="40" viewBox="0 0 34 28" fill="none" xmlns="http://www.w3.org/2000/svg">
<path d="M20.8833 27.3333H20.5333C19.8279 27.2633 19.1632 26.9703 18.6357 26.4967C18.1082 26.0232 
17.7454 25.3938 17.6 24.7L13.1333 3.99999L8.53334 14.6667C8.40322 14.9648 8.18871 15.2183 7.91625 15.396C7.64379 
15.5737 7.32529 15.6678 7 15.6667H2C1.55798 15.6667 1.13405 15.4911 0.821491 15.1785C0.508931 14.8659 0.333336 14.442 0.333336 
14C0.333336 13.558 0.508931 13.134 0.821491 12.8215C1.13405 12.5089 1.55798 12.3333 2 12.3333H5.9L10.0833 2.68332C10.3649 2.03576 
10.8449 1.49435 11.4541 1.13717C12.0632 0.779989 12.7701 0.625484 13.4727 0.695931C14.1753 0.766379 14.8374 1.05814 15.3635 
1.52915C15.8896 2.00016 16.2526 2.62607 16.4 3.31665L20.8667 24L25.4667 13.3667C25.5917 13.0623 25.804 12.8017 26.0769 12.6179C26.3498
 12.434 26.671 12.335 27 12.3333H32C32.442 12.3333 32.866 12.5089 33.1785 12.8215C33.4911 13.134 33.6667 13.558 33.6667 14C33.6667 
 14.442 33.4911 14.8659 33.1785 15.1785C32.866 15.4911 32.442 15.6667 32 15.6667H28.1L23.9167 25.3167C23.6612 25.9108 23.2384 26.4179 
 22.6998 26.776C22.1612 27.134 21.5301 27.3277 20.8833 27.3333Z" fill="white"/>
</svg>
