<svg width="26" height="32" viewBox="0 0 26 32" fill="none" xmlns="http://www.w3.org/2000/svg">
<path d="M22.3677 18.8393V9.8927C22.3677 4.79824 18.1655 0.6539 13 0.6539C7.83447 0.6539 3.63232 4.79824 3.63232 9.8927V18.8399C1.96704 19.316 0.738281 20.8269 0.738281 22.684C0.738281 24.8549 2.5293 26.6213 4.73096 26.6213H8.37696V26.668C8.37695 29.1822 10.4507 31.2274 13 31.2274C15.5493 31.2274 17.6231 29.1822 17.6231 26.668V26.6213H21.2691C23.4707 26.6213 25.2617 24.8549 25.2617 22.606C25.2617 20.8133 24.033 19.3134 22.3677 18.8393ZM6.63232 9.8927C6.63232 6.42978 9.48877 3.61263 13 3.61263C16.5112 3.61263 19.3677 6.42978 19.3677 9.8927V18.6687H6.63232V9.8927ZM14.6231 26.668C14.6231 27.5507 13.895 28.2687 13 28.2687C12.105 28.2687 11.377 27.5507 11.377 26.668V26.6213H14.623L14.6231 26.668ZM21.269 23.6625H4.73096C4.1836 23.6625 3.73828 23.2234 3.73828 22.606C3.73828 22.0666 4.18359 21.6274 4.73096 21.6274H21.2691C21.8164 21.6274 22.2617 22.0666 22.2617 22.684C22.2617 23.2233 21.8164 23.6625 21.269 23.6625Z" fill="#A098AE"/>
</svg>
