<svg width="26" height="26" viewBox="0 0 40 40" fill="none" xmlns="http://www.w3.org/2000/svg">
<path d="M14.4293 0L13.1677 5.69922C12.4501 6.04668 11.7642 6.44687 11.1064 6.89844L5.57065 5.14453L0 14.8555L4.19643 18.7227C4.03247 19.9472 4.10674 
20.5508 4.19643 21.2773L0 25.1445L5.57065 34.8555L11.1064 33.1016C11.7642 33.5531 12.4501 33.9533 13.1677 34.3008L14.4293 40H25.5707L26.8323 34.3008C27.5499 
33.9533 28.2358 33.5531 28.8936 33.1016L34.4293 34.8555L40 25.1445L35.8036 21.2773C35.8379 20.8522 35.9002 20.4268 35.9006 20C35.9022 19.5603 35.8334 19.1162 
35.8036 18.7227L40 14.8555L34.4293 5.14453L28.8936 6.89844C28.2358 6.44687 27.5499 6.04668 26.8323 5.69922L25.5707 0H14.4293ZM17.6203 4H22.3797L23.3618 
8.4375L24.3478 8.82812C25.4632 9.26767 26.5059 9.87268 27.4418 10.625L28.2725 11.2891L32.5815 9.92578L34.9612 14.0742L31.6304 17.1484L31.7896 18.2031C31.9769 
19.3695 31.9405 20.7118 31.7896 21.7969L31.6304 22.8516L34.9612 25.9258L32.5815 30.0742L28.2725 28.7109L27.4418 29.375C26.5059 30.1273 25.4632 30.7323 24.3478 
31.1719L23.3618 31.5625L22.3797 36H17.6203L16.6382 31.5625L15.6522 31.1719C14.5368 30.7323 13.4941 30.1273 12.5582 29.375L11.7275 28.7109L7.41848 30.0742L5.03882
25.9258L8.36957 22.8516L8.2104 21.7969C8.01627 20.607 8.04607 19.2451 8.2104 18.2031L8.36957 17.1484L5.03882 14.0742L7.41848 9.92578L11.7275 11.2891L12.5582 
10.625C13.4941 9.87268 14.5368 9.26767 15.6522 8.82812L16.6382 8.4375L17.6203 4ZM20 12C15.6327 12 12.0497 15.6054 12.0497 20C12.0497 24.3946 15.6327 28 20 
28C24.3673 28 27.9503 24.3946 27.9503 20C27.9503 15.6054 24.3673 12 20 12ZM20 16C22.219 16 23.9752 17.7672 23.9752 20C23.9752 22.2328 22.219 24 20 24C17.781 
24 16.0248 22.2328 16.0248 20C16.0248 17.7672 17.781 16 20 16Z" fill="black"/>
</svg>
